<svg version="1.1" id="Layer_1" xmlns="http://www.w3.org/2000/svg" xmlns:xlink="http://www.w3.org/1999/xlink" x="0px" y="0px"
	 width="100%" viewBox="0 0 900 300" enable-background="new 0 0 900 300" xml:space="preserve">
<path fill="#000000" opacity="1.000000" stroke="none" 
	d="
M653.000000,301.000000 
	C435.333344,301.000000 218.166672,301.000000 1.000000,301.000000 
	C1.000000,201.000000 1.000000,101.000000 1.000000,1.000000 
	C301.000000,1.000000 601.000000,1.000000 901.000000,1.000000 
	C901.000000,101.000000 901.000000,201.000000 901.000000,301.000000 
	C818.500000,301.000000 736.000000,301.000000 653.000000,301.000000 
M103.171478,202.817551 
	C103.171478,202.817551 102.978821,202.825836 102.997383,201.914154 
	C102.998123,163.632477 103.010025,125.350769 102.962631,87.069145 
	C102.960533,85.371986 102.418030,83.675499 101.639511,81.244644 
	C93.733284,81.134621 85.827049,81.024597 77.214737,81.419807 
	C77.144707,82.078194 77.013504,82.736565 77.013351,83.394966 
	C77.002419,130.755829 76.995132,178.116699 77.039017,225.477524 
	C77.040131,226.679962 77.613411,227.881866 78.098518,229.568542 
	C78.400192,229.656693 78.701874,229.744827 79.931290,229.971664 
	C101.586372,229.981064 123.241508,230.008087 144.896439,229.956497 
	C146.209396,229.953369 147.520874,229.325638 148.993225,228.508148 
	C149.038681,228.345581 149.084152,228.183014 149.981430,227.955215 
	C150.181427,220.402328 150.386688,212.849533 150.521408,205.295486 
	C150.523102,205.200790 149.622269,205.089996 148.995438,204.496521 
	C148.941315,204.334717 148.887207,204.172913 148.516022,203.212784 
	C133.424591,203.140900 118.333153,203.069016 103.171478,202.817551 
M198.015518,144.927139 
	C197.960342,131.653946 197.905167,118.380753 197.934128,104.160126 
	C197.951981,98.003799 197.917496,91.846695 198.010101,85.691490 
	C198.055389,82.681473 197.050568,80.992996 193.732727,80.999817 
	C172.434143,81.043617 151.135376,81.041656 129.836838,80.988258 
	C127.083366,80.981354 125.936111,82.065948 125.989677,84.828438 
	C126.086433,89.818336 126.246536,94.826576 125.933044,99.798965 
	C125.660622,104.119797 127.507774,105.131180 131.473068,105.069336 
	C143.783371,104.877350 156.099594,105.089600 168.411346,104.951035 
	C171.866699,104.912148 173.090820,106.121506 173.045868,109.583160 
	C172.875214,122.725792 172.919037,135.871201 172.103439,149.002823 
	C166.579254,149.775330 164.818100,151.607193 165.001297,156.390106 
	C165.176743,160.970367 167.234207,162.691803 172.947739,163.872849 
	C172.958542,166.527313 172.969345,169.181778 172.088547,171.973587 
	C170.164932,171.973587 168.241333,171.973587 166.281799,171.973587 
	C166.281799,190.639542 166.281799,208.687454 166.281799,226.850250 
	C168.697693,226.962677 170.836838,227.062210 173.147354,227.911591 
	C173.677887,228.501968 174.197006,229.594284 174.740707,229.606674 
	C181.780624,229.766968 188.824707,229.817001 195.864731,229.705368 
	C196.262680,229.699066 196.634537,228.046967 197.910904,227.024826 
	C199.836304,227.024826 201.761703,227.024826 204.278366,227.024826 
	C204.278366,218.447235 204.278366,210.480469 204.278366,202.513718 
	C204.862534,202.220764 205.446701,201.927795 206.030884,201.634842 
	C212.373856,209.481201 218.684967,217.353836 225.104034,225.137436 
	C225.827286,226.014435 227.129776,226.838730 228.216125,226.912308 
	C231.591537,227.140839 234.992249,226.995972 238.383133,226.995972 
	C238.751480,226.505585 239.119827,226.015198 239.488190,225.524811 
	C231.484482,215.807602 223.480789,206.090378 215.353912,196.223618 
	C222.299774,188.677551 229.595871,180.750992 237.650757,172.000046 
	C235.097992,172.000046 233.945511,172.106384 232.818481,171.982056 
	C227.259537,171.368790 223.036942,172.430405 219.422409,177.721130 
	C215.516510,183.438324 209.913788,187.996292 205.051193,193.059891 
	C204.684174,192.779221 204.317154,192.498550 203.950134,192.217880 
	C203.950134,176.604584 203.950134,160.991272 203.950134,144.881668 
	C201.737488,145.241364 199.885483,145.542435 198.015518,144.927139 
M538.566284,187.921066 
	C533.536987,185.642487 528.413452,183.548065 523.502686,181.037674 
	C517.652893,178.047256 515.750549,174.227371 516.998047,169.097687 
	C517.999512,164.979950 522.336609,161.786423 528.089417,162.117645 
	C534.443665,162.483505 540.745728,163.755890 547.507568,164.694077 
	C547.655579,164.306671 547.899780,162.978333 548.597351,161.960876 
	C551.604248,157.575256 549.422363,154.976639 545.306702,154.263992 
	C538.554871,153.094925 531.588928,151.753876 524.855469,152.285843 
	C518.183228,152.812943 511.317047,154.892853 507.653229,161.803345 
	C501.106720,174.151093 506.163147,187.163818 519.233704,192.017426 
	C524.858337,194.106064 530.437866,196.396790 535.815308,199.047241 
	C540.924377,201.565414 543.156250,207.842636 540.929810,212.745346 
	C538.750244,217.544876 534.231750,219.169968 529.549072,218.871140 
	C521.840271,218.379196 514.183716,217.068604 505.999207,216.039505 
	C505.239197,217.914413 504.107117,220.707214 502.843872,223.823578 
	C513.531372,228.672302 524.113953,229.624268 535.542603,228.224869 
	C553.608887,226.012726 557.858032,206.388550 548.913025,195.275055 
	C546.480774,192.253220 542.556641,190.432129 538.566284,187.921066 
M802.019409,225.216766 
	C805.485596,226.032043 808.951782,226.847336 811.986145,227.561050 
	C811.986145,213.506073 812.602173,200.577438 811.797668,187.737808 
	C811.113281,176.814438 802.133057,170.587845 792.536316,170.967850 
	C787.844666,171.153625 783.139526,171.000000 777.970276,171.000000 
	C777.970276,162.809555 777.970276,154.039078 777.970276,144.683212 
	C776.043030,145.175262 774.610168,145.977036 773.310730,145.799820 
	C766.510193,144.872513 766.934937,149.214706 766.955505,153.786179 
	C767.054504,175.775238 767.000000,197.764999 767.000000,219.754501 
	C767.000000,222.035782 767.000000,224.317078 767.000000,226.688522 
	C770.915466,226.688522 774.302246,226.688522 778.000000,226.688522 
	C778.000000,224.740204 778.000000,223.100754 778.000000,221.461288 
	C778.000061,209.633606 777.891296,197.803757 778.125183,185.980698 
	C778.157837,184.331802 779.505493,181.904602 780.897827,181.269119 
	C783.177673,180.228561 785.983704,180.192734 788.585999,180.037155 
	C794.238586,179.699219 799.253967,182.986221 800.521729,188.107376 
	C801.340637,191.415497 801.858704,194.872299 801.935425,198.275436 
	C802.130554,206.933609 802.001953,215.599045 802.019409,225.216766 
M590.578613,170.998398 
	C581.125427,168.930649 570.641357,173.998871 566.467041,180.781830 
	C560.459351,190.543732 559.592773,200.636963 562.759644,211.256409 
	C565.642151,220.922501 572.177490,226.920059 582.328308,227.898148 
	C588.266724,228.470337 594.354065,228.290527 600.300293,227.701401 
	C604.080872,227.326859 607.817749,225.697540 605.063782,220.373230 
	C604.586243,219.449936 604.745300,218.197357 604.776855,218.454697 
	C597.507324,218.454697 590.626465,219.185745 583.972961,218.267975 
	C575.819763,217.143372 573.447510,210.462173 572.509705,202.769531 
	C584.957275,202.769531 597.361084,202.769531 610.377991,202.769531 
	C609.871399,197.561844 609.745728,192.788864 608.885986,188.151993 
	C607.068420,178.349075 600.130554,171.747131 590.578613,170.998398 
M271.945099,170.943192 
	C265.557709,170.014084 259.816925,171.608963 254.861023,175.668640 
	C245.041367,183.712479 243.893723,194.775391 245.285004,206.182236 
	C246.085617,212.746338 248.588623,218.962936 254.488724,223.188736 
	C264.972839,230.697769 276.242493,229.822098 287.718964,226.528030 
	C288.578918,226.281189 289.354431,224.263290 289.410431,223.034134 
	C289.497101,221.131668 288.929321,219.199387 288.718231,217.803452 
	C281.701691,218.077362 274.786407,219.269089 268.154907,218.369263 
	C260.145599,217.282471 257.290619,210.716782 256.175446,202.999451 
	C267.516388,202.999451 278.495392,202.890396 289.470032,203.062607 
	C292.987640,203.117813 294.431000,201.879639 294.001038,198.426987 
	C293.657654,195.669632 293.469208,192.884766 292.969269,190.156586 
	C291.064514,179.762283 286.393066,171.169510 271.945099,170.943192 
M410.732635,227.010773 
	C421.108917,230.662369 430.863251,229.796906 438.714172,221.636307 
	C447.725494,212.269516 448.663666,200.858032 445.338989,188.795044 
	C441.947571,176.489838 431.271881,169.745041 418.004364,170.829086 
	C407.489258,171.688248 400.705078,177.167557 397.193909,186.152466 
	C390.599396,203.027527 395.193939,216.501190 410.732635,227.010773 
M619.000000,211.446503 
	C618.611511,220.387421 625.287964,227.396835 632.727234,227.812836 
	C642.709778,228.371017 652.760620,227.707275 662.000793,227.578964 
	C662.000793,212.906128 662.280212,199.517715 661.901550,186.147949 
	C661.653503,177.391144 654.627869,171.176514 645.874573,171.012680 
	C641.868774,170.937714 637.834534,170.706512 633.858276,171.057281 
	C623.495300,171.971481 623.914978,173.012054 626.130737,181.209183 
	C626.200439,181.467087 626.568054,181.644470 626.219177,181.316635 
	C631.439819,180.845169 636.113403,180.156174 640.799133,180.060013 
	C648.613098,179.899673 653.079346,185.902176 651.274719,194.003693 
	C645.665344,194.003693 639.947388,193.514648 634.347900,194.120667 
	C626.363831,194.984787 618.973511,200.122635 619.000000,211.446503 
M355.000000,170.506119 
	C355.000031,183.835999 354.838562,197.169144 355.109741,210.493515 
	C355.180511,213.970810 356.145508,217.609558 357.493622,220.843216 
	C360.164124,227.248749 371.879120,230.053955 378.489624,228.279129 
	C388.300140,225.645111 388.352325,225.820526 386.861633,217.793182 
	C386.812134,217.526550 386.446960,217.318527 385.962341,216.795547 
	C384.082245,217.330887 382.065063,217.878464 380.064056,218.479782 
	C372.713867,220.688599 366.645294,218.299927 366.256348,212.040207 
	C365.621338,201.820801 366.084747,191.533127 366.084747,180.773911 
	C373.053925,180.773911 379.461578,180.773911 385.754211,180.773911 
	C385.754211,177.647720 385.754211,175.036240 385.754211,171.918518 
	C379.122162,171.918518 372.719269,171.918518 365.857361,171.918518 
	C365.857361,165.987717 365.857361,160.569595 365.857361,154.802002 
	C361.988129,155.365021 358.642609,155.851837 355.000000,156.381882 
	C355.000000,160.892288 355.000000,165.201233 355.000000,170.506119 
M730.959534,185.556778 
	C737.709045,177.654282 746.088257,179.722122 754.467834,182.119598 
	C755.429077,179.164337 756.272278,176.571930 757.558655,172.617203 
	C752.696838,172.012299 748.314087,171.398880 743.915588,170.935181 
	C736.736694,170.178421 730.344543,171.648193 724.706238,176.667252 
	C717.922791,182.705643 715.295837,190.599472 715.217651,198.984756 
	C715.138672,207.454788 716.768860,215.904327 723.665771,222.205231 
	C730.902405,228.816513 748.330383,231.363495 756.478882,226.681046 
	C757.248535,226.238800 757.922852,224.785294 757.852417,223.861481 
	C757.332031,217.035919 756.876465,216.966568 749.913391,218.513855 
	C743.263855,219.991486 736.405029,219.603409 731.445068,214.599335 
	C725.274963,208.374344 725.193848,193.709518 730.959534,185.556778 
M678.000000,185.530258 
	C678.000000,199.264877 678.000000,212.999481 678.000000,226.627869 
	C682.040955,226.627869 685.423950,226.627869 689.094604,226.627869 
	C689.094604,211.332687 689.094604,196.407013 689.094604,180.822205 
	C695.713867,180.822205 702.029114,180.822205 708.633789,180.822205 
	C709.087708,178.293289 709.594788,175.468460 710.177673,172.221161 
	C706.614929,171.785019 703.417908,171.224960 700.199768,171.045380 
	C696.718933,170.851120 693.177490,170.670334 689.733643,171.080521 
	C678.194031,172.454956 678.000000,172.794800 678.000000,185.530258 
M225.686569,81.000832 
	C221.459473,80.405380 219.585999,81.931313 219.924576,86.482903 
	C220.281403,91.279686 220.112885,96.125961 219.977921,100.945122 
	C219.893112,103.973076 221.154083,105.093536 224.117142,105.023094 
	C229.436127,104.896622 234.761322,104.921127 240.081726,105.012016 
	C242.771515,105.057968 244.058029,104.069031 244.008713,101.246162 
	C243.912872,95.759605 243.914169,90.268997 244.009995,84.782417 
	C244.058853,81.984306 242.825775,80.930939 240.111679,80.988152 
	C235.623352,81.082771 231.131409,81.005058 225.686569,81.000832 
z"/>
<path fill="#A6CE46" opacity="1.000000" stroke="none" 
	d="
M77.920822,80.914581 
	C85.827049,81.024597 93.733284,81.134621 101.845993,82.078415 
	C102.035362,121.303749 102.006607,159.695328 102.042572,198.086838 
	C102.044052,199.666794 102.652924,201.246185 102.978821,202.825836 
	C102.978821,202.825836 103.171478,202.817551 103.514694,203.126770 
	C105.812065,203.623749 107.765587,203.966431 109.720451,203.974258 
	C122.757835,204.026474 135.795502,204.007187 148.833084,204.011108 
	C148.887207,204.172913 148.941315,204.334717 149.028687,205.207321 
	C149.084503,213.285568 149.107071,220.653000 149.129639,228.020447 
	C149.084152,228.183014 149.038681,228.345581 148.455124,228.750427 
	C127.052658,228.995270 106.188225,228.974106 85.324036,229.036743 
	C83.216438,229.043076 81.110344,229.555435 79.003555,229.832977 
	C78.701874,229.744827 78.400192,229.656693 78.028366,228.854126 
	C77.945755,179.064682 77.933289,129.989624 77.920822,80.914581 
z"/>
<path fill="#085932" opacity="1.000000" stroke="none" 
	d="
M197.018555,227.160858 
	C196.634537,228.046967 196.262680,229.699066 195.864731,229.705368 
	C188.824707,229.817001 181.780624,229.766968 174.740707,229.606674 
	C174.197006,229.594284 173.677887,228.501968 173.487640,227.473022 
	C176.647415,227.378891 177.017044,225.772934 177.007187,223.430603 
	C176.940887,207.661789 176.917450,191.892197 177.021103,176.123779 
	C177.040848,173.119904 175.825424,171.854980 172.980148,171.836243 
	C172.969345,169.181778 172.958542,166.527313 173.102600,163.124146 
	C179.720795,158.194122 179.601181,153.930435 172.882675,149.015564 
	C172.919037,135.871201 172.875214,122.725792 173.045868,109.583160 
	C173.090820,106.121506 171.866699,104.912148 168.411346,104.951035 
	C156.099594,105.089600 143.783371,104.877350 131.473068,105.069336 
	C127.507774,105.131180 125.660622,104.119797 125.933044,99.798965 
	C126.246536,94.826576 126.086433,89.818336 125.989677,84.828438 
	C125.936111,82.065948 127.083366,80.981354 129.836838,80.988258 
	C151.135376,81.041656 172.434143,81.043617 193.732727,80.999817 
	C197.050568,80.992996 198.055389,82.681473 198.010101,85.691490 
	C197.917496,91.846695 197.951981,98.003799 197.712311,104.992096 
	C197.319107,119.161064 197.147736,132.498077 196.632477,146.024963 
	C194.202240,147.018402 193.008850,148.044022 193.029816,150.774292 
	C193.222290,175.843201 193.202682,200.913727 193.234802,226.218018 
	C193.388428,226.782791 193.650696,226.909698 194.385284,226.896301 
	C195.512207,227.026718 196.265381,227.093796 197.018555,227.160858 
z"/>
<path fill="#A6CE46" opacity="1.000000" stroke="none" 
	d="
M538.941772,187.990509 
	C542.556641,190.432129 546.480774,192.253220 548.913025,195.275055 
	C557.858032,206.388550 553.608887,226.012726 535.542603,228.224869 
	C524.113953,229.624268 513.531372,228.672302 502.843872,223.823578 
	C504.107117,220.707214 505.239197,217.914413 505.999207,216.039505 
	C514.183716,217.068604 521.840271,218.379196 529.549072,218.871140 
	C534.231750,219.169968 538.750244,217.544876 540.929810,212.745346 
	C543.156250,207.842636 540.924377,201.565414 535.815308,199.047241 
	C530.437866,196.396790 524.858337,194.106064 519.233704,192.017426 
	C506.163147,187.163818 501.106720,174.151093 507.653229,161.803345 
	C511.317047,154.892853 518.183228,152.812943 524.855469,152.285843 
	C531.588928,151.753876 538.554871,153.094925 545.306702,154.263992 
	C549.422363,154.976639 551.604248,157.575256 548.597351,161.960876 
	C547.899780,162.978333 547.655579,164.306671 547.507568,164.694077 
	C540.745728,163.755890 534.443665,162.483505 528.089417,162.117645 
	C522.336609,161.786423 517.999512,164.979950 516.998047,169.097687 
	C515.750549,174.227371 517.652893,178.047256 523.502686,181.037674 
	C528.413452,183.548065 533.536987,185.642487 538.941772,187.990509 
z"/>
<path fill="#A6CE46" opacity="1.000000" stroke="none" 
	d="
M802.011169,224.739166 
	C802.001953,215.599045 802.130554,206.933609 801.935425,198.275436 
	C801.858704,194.872299 801.340637,191.415497 800.521729,188.107376 
	C799.253967,182.986221 794.238586,179.699219 788.585999,180.037155 
	C785.983704,180.192734 783.177673,180.228561 780.897827,181.269119 
	C779.505493,181.904602 778.157837,184.331802 778.125183,185.980698 
	C777.891296,197.803757 778.000061,209.633606 778.000000,221.461288 
	C778.000000,223.100754 778.000000,224.740204 778.000000,226.688522 
	C774.302246,226.688522 770.915466,226.688522 767.000000,226.688522 
	C767.000000,224.317078 767.000000,222.035782 767.000000,219.754501 
	C767.000000,197.764999 767.054504,175.775238 766.955505,153.786179 
	C766.934937,149.214706 766.510193,144.872513 773.310730,145.799820 
	C774.610168,145.977036 776.043030,145.175262 777.970276,144.683212 
	C777.970276,154.039078 777.970276,162.809555 777.970276,171.000000 
	C783.139526,171.000000 787.844666,171.153625 792.536316,170.967850 
	C802.133057,170.587845 811.113281,176.814438 811.797668,187.737808 
	C812.602173,200.577438 811.986145,213.506073 811.986145,227.561050 
	C808.951782,226.847336 805.485596,226.032043 802.011169,224.739166 
z"/>
<path fill="#A6CE46" opacity="1.000000" stroke="none" 
	d="
M193.244873,225.983795 
	C193.202682,200.913727 193.222290,175.843201 193.029816,150.774292 
	C193.008850,148.044022 194.202240,147.018402 196.896454,146.066696 
	C197.680679,145.893539 197.857071,145.868515 198.033478,145.843506 
	C199.885483,145.542435 201.737488,145.241364 203.950134,144.881668 
	C203.950134,160.991272 203.950134,176.604584 203.950134,192.217880 
	C204.317154,192.498550 204.684174,192.779221 205.051193,193.059891 
	C209.913788,187.996292 215.516510,183.438324 219.422409,177.721130 
	C223.036942,172.430405 227.259537,171.368790 232.818481,171.982056 
	C233.945511,172.106384 235.097992,172.000046 237.650757,172.000046 
	C229.595871,180.750992 222.299774,188.677551 215.353912,196.223618 
	C223.480789,206.090378 231.484482,215.807602 239.488190,225.524811 
	C239.119827,226.015198 238.751480,226.505585 238.383133,226.995972 
	C234.992249,226.995972 231.591537,227.140839 228.216125,226.912308 
	C227.129776,226.838730 225.827286,226.014435 225.104034,225.137436 
	C218.684967,217.353836 212.373856,209.481201 206.030884,201.634842 
	C205.446701,201.927795 204.862534,202.220764 204.278366,202.513718 
	C204.278366,210.480469 204.278366,218.447235 204.278366,227.024826 
	C201.761703,227.024826 199.836304,227.024826 197.464722,227.092834 
	C196.265381,227.093796 195.512207,227.026718 194.278763,226.736237 
	C193.645920,226.303055 193.461380,226.126709 193.244873,225.983795 
z"/>
<path fill="#A6CE46" opacity="1.000000" stroke="none" 
	d="
M591.004028,170.999146 
	C600.130554,171.747131 607.068420,178.349075 608.885986,188.151993 
	C609.745728,192.788864 609.871399,197.561844 610.377991,202.769531 
	C597.361084,202.769531 584.957275,202.769531 572.509705,202.769531 
	C573.447510,210.462173 575.819763,217.143372 583.972961,218.267975 
	C590.626465,219.185745 597.507324,218.454697 604.776855,218.454697 
	C604.745300,218.197357 604.586243,219.449936 605.063782,220.373230 
	C607.817749,225.697540 604.080872,227.326859 600.300293,227.701401 
	C594.354065,228.290527 588.266724,228.470337 582.328308,227.898148 
	C572.177490,226.920059 565.642151,220.922501 562.759644,211.256409 
	C559.592773,200.636963 560.459351,190.543732 566.467041,180.781830 
	C570.641357,173.998871 581.125427,168.930649 591.004028,170.999146 
M578.595032,182.929794 
	C575.520508,185.874710 572.665894,188.922791 573.228516,193.728882 
	C581.935364,193.728882 590.334473,193.728882 598.754211,193.728882 
	C597.349060,179.043884 585.827026,177.170532 578.595032,182.929794 
z"/>
<path fill="#A6CE46" opacity="1.000000" stroke="none" 
	d="
M272.372253,170.967163 
	C286.393066,171.169510 291.064514,179.762283 292.969269,190.156586 
	C293.469208,192.884766 293.657654,195.669632 294.001038,198.426987 
	C294.431000,201.879639 292.987640,203.117813 289.470032,203.062607 
	C278.495392,202.890396 267.516388,202.999451 256.175446,202.999451 
	C257.290619,210.716782 260.145599,217.282471 268.154907,218.369263 
	C274.786407,219.269089 281.701691,218.077362 288.718231,217.803452 
	C288.929321,219.199387 289.497101,221.131668 289.410431,223.034134 
	C289.354431,224.263290 288.578918,226.281189 287.718964,226.528030 
	C276.242493,229.822098 264.972839,230.697769 254.488724,223.188736 
	C248.588623,218.962936 246.085617,212.746338 245.285004,206.182236 
	C243.893723,194.775391 245.041367,183.712479 254.861023,175.668640 
	C259.816925,171.608963 265.557709,170.014084 272.372253,170.967163 
M258.242737,193.995895 
	C266.118988,193.995895 273.995239,193.995895 281.782501,193.995895 
	C282.556915,188.193436 280.433014,184.471802 276.300568,181.763809 
	C271.394989,178.549179 266.241241,179.238327 262.182678,182.642319 
	C259.037140,185.280533 255.653152,188.809280 258.242737,193.995895 
z"/>
<path fill="#A6CE46" opacity="1.000000" stroke="none" 
	d="
M410.334076,226.981522 
	C395.193939,216.501190 390.599396,203.027527 397.193909,186.152466 
	C400.705078,177.167557 407.489258,171.688248 418.004364,170.829086 
	C431.271881,169.745041 441.947571,176.489838 445.338989,188.795044 
	C448.663666,200.858032 447.725494,212.269516 438.714172,221.636307 
	C430.863251,229.796906 421.108917,230.662369 410.334076,226.981522 
M434.994202,206.246994 
	C434.984619,201.580032 435.512360,196.833923 434.839447,192.264648 
	C433.832123,185.424866 428.348694,180.661118 421.943207,180.006088 
	C416.009125,179.399261 410.905792,182.862625 407.882080,189.455261 
	C405.224274,195.250153 405.446289,201.142410 406.942474,207.170441 
	C409.059418,215.699615 414.412109,219.996490 422.737579,218.917511 
	C429.500336,218.041077 433.142059,213.367584 434.994202,206.246994 
z"/>
<path fill="#A6CE46" opacity="1.000000" stroke="none" 
	d="
M619.000000,211.006424 
	C618.973511,200.122635 626.363831,194.984787 634.347900,194.120667 
	C639.947388,193.514648 645.665344,194.003693 651.274719,194.003693 
	C653.079346,185.902176 648.613098,179.899673 640.799133,180.060013 
	C636.113403,180.156174 631.439819,180.845169 626.219177,181.316635 
	C626.568054,181.644470 626.200439,181.467087 626.130737,181.209183 
	C623.914978,173.012054 623.495300,171.971481 633.858276,171.057281 
	C637.834534,170.706512 641.868774,170.937714 645.874573,171.012680 
	C654.627869,171.176514 661.653503,177.391144 661.901550,186.147949 
	C662.280212,199.517715 662.000793,212.906128 662.000793,227.578964 
	C652.760620,227.707275 642.709778,228.371017 632.727234,227.812836 
	C625.287964,227.396835 618.611511,220.387421 619.000000,211.006424 
M649.678040,202.911255 
	C644.288330,200.900436 638.822998,201.577438 634.136597,204.234512 
	C632.011719,205.439270 630.246521,209.242020 630.339783,211.792297 
	C630.418457,213.944153 633.107544,217.340576 635.184692,217.817032 
	C640.484497,219.032745 646.088074,218.924667 652.000000,219.379303 
	C652.000000,215.344009 652.171631,212.214462 651.939575,209.115128 
	C651.785645,207.058838 651.053833,205.045807 649.678040,202.911255 
z"/>
<path fill="#A6CE46" opacity="1.000000" stroke="none" 
	d="
M355.000000,170.008148 
	C355.000000,165.201233 355.000000,160.892288 355.000000,156.381882 
	C358.642609,155.851837 361.988129,155.365021 365.857361,154.802002 
	C365.857361,160.569595 365.857361,165.987717 365.857361,171.918518 
	C372.719269,171.918518 379.122162,171.918518 385.754211,171.918518 
	C385.754211,175.036240 385.754211,177.647720 385.754211,180.773911 
	C379.461578,180.773911 373.053925,180.773911 366.084747,180.773911 
	C366.084747,191.533127 365.621338,201.820801 366.256348,212.040207 
	C366.645294,218.299927 372.713867,220.688599 380.064056,218.479782 
	C382.065063,217.878464 384.082245,217.330887 385.962341,216.795547 
	C386.446960,217.318527 386.812134,217.526550 386.861633,217.793182 
	C388.352325,225.820526 388.300140,225.645111 378.489624,228.279129 
	C371.879120,230.053955 360.164124,227.248749 357.493622,220.843216 
	C356.145508,217.609558 355.180511,213.970810 355.109741,210.493515 
	C354.838562,197.169144 355.000031,183.835999 355.000000,170.008148 
z"/>
<path fill="#A6CE46" opacity="1.000000" stroke="none" 
	d="
M730.681396,185.814972 
	C725.193848,193.709518 725.274963,208.374344 731.445068,214.599335 
	C736.405029,219.603409 743.263855,219.991486 749.913391,218.513855 
	C756.876465,216.966568 757.332031,217.035919 757.852417,223.861481 
	C757.922852,224.785294 757.248535,226.238800 756.478882,226.681046 
	C748.330383,231.363495 730.902405,228.816513 723.665771,222.205231 
	C716.768860,215.904327 715.138672,207.454788 715.217651,198.984756 
	C715.295837,190.599472 717.922791,182.705643 724.706238,176.667252 
	C730.344543,171.648193 736.736694,170.178421 743.915588,170.935181 
	C748.314087,171.398880 752.696838,172.012299 757.558655,172.617203 
	C756.272278,176.571930 755.429077,179.164337 754.467834,182.119598 
	C746.088257,179.722122 737.709045,177.654282 730.681396,185.814972 
z"/>
<path fill="#A6CE46" opacity="1.000000" stroke="none" 
	d="
M678.000000,185.036407 
	C678.000000,172.794800 678.194031,172.454956 689.733643,171.080521 
	C693.177490,170.670334 696.718933,170.851120 700.199768,171.045380 
	C703.417908,171.224960 706.614929,171.785019 710.177673,172.221161 
	C709.594788,175.468460 709.087708,178.293289 708.633789,180.822205 
	C702.029114,180.822205 695.713867,180.822205 689.094604,180.822205 
	C689.094604,196.407013 689.094604,211.332687 689.094604,226.627869 
	C685.423950,226.627869 682.040955,226.627869 678.000000,226.627869 
	C678.000000,212.999481 678.000000,199.264877 678.000000,185.036407 
z"/>
<path fill="#A5CD46" opacity="1.000000" stroke="none" 
	d="
M172.534348,171.904907 
	C175.825424,171.854980 177.040848,173.119904 177.021103,176.123779 
	C176.917450,191.892197 176.940887,207.661789 177.007187,223.430603 
	C177.017044,225.772934 176.647415,227.378891 173.401947,227.098114 
	C170.836838,227.062210 168.697693,226.962677 166.281799,226.850250 
	C166.281799,208.687454 166.281799,190.639542 166.281799,171.973587 
	C168.241333,171.973587 170.164932,171.973587 172.534348,171.904907 
z"/>
<path fill="#085932" opacity="1.000000" stroke="none" 
	d="
M226.163788,81.000397 
	C231.131409,81.005058 235.623352,81.082771 240.111679,80.988152 
	C242.825775,80.930939 244.058853,81.984306 244.009995,84.782417 
	C243.914169,90.268997 243.912872,95.759605 244.008713,101.246162 
	C244.058029,104.069031 242.771515,105.057968 240.081726,105.012016 
	C234.761322,104.921127 229.436127,104.896622 224.117142,105.023094 
	C221.154083,105.093536 219.893112,103.973076 219.977921,100.945122 
	C220.112885,96.125961 220.281403,91.279686 219.924576,86.482903 
	C219.585999,81.931313 221.459473,80.405380 226.163788,81.000397 
z"/>
<path fill="#AAAA55" opacity="1.000000" stroke="none" 
	d="
M77.567780,81.167191 
	C77.933289,129.989624 77.945755,179.064682 77.939041,228.611877 
	C77.613411,227.881866 77.040131,226.679962 77.039017,225.477524 
	C76.995132,178.116699 77.002419,130.755829 77.013351,83.394966 
	C77.013504,82.736565 77.144707,82.078194 77.567780,81.167191 
z"/>
<path fill="#A6CE46" opacity="1.000000" stroke="none" 
	d="
M172.493057,149.009186 
	C179.601181,153.930435 179.720795,158.194122 173.070526,162.680206 
	C167.234207,162.691803 165.176743,160.970367 165.001297,156.390106 
	C164.818100,151.607193 166.579254,149.775330 172.493057,149.009186 
z"/>
<path fill="#80FF80" opacity="1.000000" stroke="none" 
	d="
M102.988098,202.369995 
	C102.652924,201.246185 102.044052,199.666794 102.042572,198.086838 
	C102.006607,159.695328 102.035362,121.303749 102.089859,82.445435 
	C102.418030,83.675499 102.960533,85.371986 102.962631,87.069145 
	C103.010025,125.350769 102.998123,163.632477 102.988098,202.369995 
z"/>
<path fill="#AAAA55" opacity="1.000000" stroke="none" 
	d="
M79.467422,229.902313 
	C81.110344,229.555435 83.216438,229.043076 85.324036,229.036743 
	C106.188225,228.974106 127.052658,228.995270 148.375031,228.990631 
	C147.520874,229.325638 146.209396,229.953369 144.896439,229.956497 
	C123.241508,230.008087 101.586372,229.981064 79.467422,229.902313 
z"/>
<path fill="#80FF7F" opacity="1.000000" stroke="none" 
	d="
M149.555542,227.987823 
	C149.107071,220.653000 149.084503,213.285568 149.102325,205.452423 
	C149.622269,205.089996 150.523102,205.200790 150.521408,205.295486 
	C150.386688,212.849533 150.181427,220.402328 149.555542,227.987823 
z"/>
<path fill="#AAAA55" opacity="1.000000" stroke="none" 
	d="
M148.674561,203.611938 
	C135.795502,204.007187 122.757835,204.026474 109.720451,203.974258 
	C107.765587,203.966431 105.812065,203.623749 103.549820,203.216553 
	C118.333153,203.069016 133.424591,203.140900 148.674561,203.611938 
z"/>
<path fill="#1A6633" opacity="1.000000" stroke="none" 
	d="
M198.024506,145.385315 
	C197.857071,145.868515 197.680679,145.893539 197.240326,145.876816 
	C197.147736,132.498077 197.319107,119.161064 197.670242,105.465805 
	C197.905167,118.380753 197.960342,131.653946 198.024506,145.385315 
z"/>
<path fill="#88B842" opacity="1.000000" stroke="none" 
	d="
M193.234802,226.218018 
	C193.461380,226.126709 193.645920,226.303055 193.904999,226.672913 
	C193.650696,226.909698 193.388428,226.782791 193.234802,226.218018 
z"/>
<path fill="#000000" opacity="1.000000" stroke="none" 
	d="
M578.852417,182.644043 
	C585.827026,177.170532 597.349060,179.043884 598.754211,193.728882 
	C590.334473,193.728882 581.935364,193.728882 573.228516,193.728882 
	C572.665894,188.922791 575.520508,185.874710 578.852417,182.644043 
z"/>
<path fill="#000000" opacity="1.000000" stroke="none" 
	d="
M257.824036,193.983917 
	C255.653152,188.809280 259.037140,185.280533 262.182678,182.642319 
	C266.241241,179.238327 271.394989,178.549179 276.300568,181.763809 
	C280.433014,184.471802 282.556915,188.193436 281.782501,193.995895 
	C273.995239,193.995895 266.118988,193.995895 257.824036,193.983917 
z"/>
<path fill="#000000" opacity="1.000000" stroke="none" 
	d="
M434.969635,206.663147 
	C433.142059,213.367584 429.500336,218.041077 422.737579,218.917511 
	C414.412109,219.996490 409.059418,215.699615 406.942474,207.170441 
	C405.446289,201.142410 405.224274,195.250153 407.882080,189.455261 
	C410.905792,182.862625 416.009125,179.399261 421.943207,180.006088 
	C428.348694,180.661118 433.832123,185.424866 434.839447,192.264648 
	C435.512360,196.833923 434.984619,201.580032 434.969635,206.663147 
z"/>
<path fill="#000000" opacity="1.000000" stroke="none" 
	d="
M650.129395,202.962326 
	C651.053833,205.045807 651.785645,207.058838 651.939575,209.115128 
	C652.171631,212.214462 652.000000,215.344009 652.000000,219.379303 
	C646.088074,218.924667 640.484497,219.032745 635.184692,217.817032 
	C633.107544,217.340576 630.418457,213.944153 630.339783,211.792297 
	C630.246521,209.242020 632.011719,205.439270 634.136597,204.234512 
	C638.822998,201.577438 644.288330,200.900436 650.129395,202.962326 
z"/>
</svg>